<svg id="instagram" xmlns="http://www.w3.org/2000/svg" width="26.323" height="26.323" viewBox="0 0 26.323 26.323">
  <path id="Pfad_13" data-name="Pfad 13" d="M95.08,83.438H86.051a2.617,2.617,0,0,0-2.613,2.613V95.08a2.617,2.617,0,0,0,2.613,2.614H95.08a2.617,2.617,0,0,0,2.614-2.614V86.051A2.617,2.617,0,0,0,95.08,83.438ZM90.566,95.259a4.693,4.693,0,1,1,4.693-4.693A4.7,4.7,0,0,1,90.566,95.259Zm4.844-8.415a1.11,1.11,0,1,1,1.11-1.11A1.112,1.112,0,0,1,95.41,86.843Z" transform="translate(-77.404 -77.404)" fill="#fff" fill-rule="evenodd"/>
  <path id="Pfad_14" data-name="Pfad 14" d="M147.233,144.531a2.71,2.71,0,1,0,2.71,2.709A2.713,2.713,0,0,0,147.233,144.531Z" transform="translate(-134.072 -134.079)" fill="#fff" fill-rule="evenodd"/>
  <path id="Pfad_15" data-name="Pfad 15" d="M0,0V26.323H26.323V0ZM22.272,17.676a4.6,4.6,0,0,1-4.6,4.6H8.647a4.6,4.6,0,0,1-4.6-4.6V8.647a4.6,4.6,0,0,1,4.6-4.6h9.029a4.6,4.6,0,0,1,4.6,4.6Z" fill="#fff" fill-rule="evenodd"/>
</svg>
