<svg id="linkedin" xmlns="http://www.w3.org/2000/svg" width="26.42" height="26.42" viewBox="0 0 26.42 26.42">
  <path id="Pfad_128" data-name="Pfad 128" d="M245.984,203.724v-.039c-.008.013-.019.026-.026.039Z" transform="translate(-231.676 -191.858)" fill-rule="evenodd"/>
  <path id="Pfad_129" data-name="Pfad 129" d="M0,0V26.42H26.42V0ZM8.218,21.949H4.3V10.156h3.92Zm-1.96-13.4H6.232a2.043,2.043,0,1,1,.052-4.076,2.044,2.044,0,1,1-.026,4.076Zm16.1,13.4H18.435V15.64c0-1.585-.566-2.666-1.986-2.666a2.144,2.144,0,0,0-2.011,1.434,2.686,2.686,0,0,0-.13.956v6.586H10.386s.053-10.687,0-11.793h3.922v1.671a3.894,3.894,0,0,1,3.534-1.948c2.58,0,4.514,1.685,4.514,5.307Z" fill="#fff" fill-rule="evenodd"/>
</svg>
