<svg xmlns="http://www.w3.org/2000/svg" width="26.422" height="26.422" viewBox="0 0 26.422 26.422">
  <path id="twitter" d="M0,0V26.422H26.422V0ZM20.946,9.505q.009.233.009.468A11.375,11.375,0,0,1,3.5,19.586h0A7.666,7.666,0,0,0,9.36,17.911a3.934,3.934,0,0,1-3.668-2.787,3.652,3.652,0,0,0,1.761-.074A3.793,3.793,0,0,1,4.3,11.089a4.1,4.1,0,0,0,1.724.514C2.977,8.925,4.885,6.321,4.885,6.321a12.019,12.019,0,0,0,8.192,4.141,3.991,3.991,0,0,1,6.8-3.63c.2-.057.4-.118.585-.18A13.856,13.856,0,0,0,22.4,5.844a4.228,4.228,0,0,1-1.736,2.215l-.006,0h.007a9.226,9.226,0,0,0,2.258-.586A8.94,8.94,0,0,1,20.946,9.505Z" fill="#fff"/>
</svg>
