<svg id="youtube" xmlns="http://www.w3.org/2000/svg" width="26.323" height="26.323" viewBox="0 0 26.323 26.323">
  <path id="Pfad_16" data-name="Pfad 16" d="M0,0V26.323H26.323V0ZM21.955,17.469a2.3,2.3,0,0,1-1.97,1.791,61.228,61.228,0,0,1-6.824.252,61.239,61.239,0,0,1-6.824-.252,2.3,2.3,0,0,1-1.969-1.791,19.487,19.487,0,0,1-.318-4.308,19.5,19.5,0,0,1,.321-4.307A2.3,2.3,0,0,1,6.34,7.063a61.263,61.263,0,0,1,6.825-.253,61.255,61.255,0,0,1,6.824.253,2.3,2.3,0,0,1,1.97,1.791,19.483,19.483,0,0,1,.315,4.307A19.505,19.505,0,0,1,21.955,17.469Z" fill="#fff" fill-rule="evenodd"/>
  <path id="Pfad_17" data-name="Pfad 17" d="M186.855,178.257l5.793-3-5.793-3.022Z" transform="translate(-176.045 -162.266)" fill="#fff" fill-rule="evenodd"/>
</svg>
